<?xml version="1.0" encoding="UTF-8"?>
<!DOCTYPE svg PUBLIC "-//W3C//DTD SVG 1.1//EN" "http://www.w3.org/Graphics/SVG/1.1/DTD/svg11.dtd">
<svg xmlns="http://www.w3.org/2000/svg" version="1.1" width="512px" height="512px" style="shape-rendering:geometricPrecision; text-rendering:geometricPrecision; image-rendering:optimizeQuality; fill-rule:evenodd; clip-rule:evenodd" xmlns:xlink="http://www.w3.org/1999/xlink">
<g><path style="opacity:0.999" fill="#fe05fe" d="M 28.5,186.5 C 29.1667,185.167 29.8333,183.833 30.5,182.5C 34.908,179.448 36.5747,175.448 35.5,170.5C 35.1632,166.692 35.6632,163.026 37,159.5C 39.6938,156.14 42.6938,153.14 46,150.5C 46.6667,148.167 46.6667,145.833 46,143.5C 44.023,140.411 42.523,137.077 41.5,133.5C 42.0402,132.252 42.7069,131.085 43.5,130C 48.2869,128.691 52.2869,126.191 55.5,122.5C 70.2465,106.921 85.5799,91.7544 101.5,77C 113.677,69.8249 125.01,61.4916 135.5,52C 141.676,47.6755 147.843,47.5088 154,51.5C 153.823,47.6824 155.323,44.8491 158.5,43C 181.747,37.6173 205.08,32.6173 228.5,28C 233.5,27.3333 238.5,27.3333 243.5,28C 252.628,30.9592 261.961,31.9592 271.5,31C 273.936,30.0701 276.269,28.9034 278.5,27.5C 283.346,32.8453 288.346,38.0119 293.5,43C 297.849,43.5361 302.182,43.3695 306.5,42.5C 309.849,42.8916 313.183,43.3916 316.5,44C 328.718,47.7111 341.051,51.0444 353.5,54C 356.598,55.4328 359.431,57.2662 362,59.5C 365.936,60.1278 369.77,61.1278 373.5,62.5C 374.452,64.0453 374.785,65.712 374.5,67.5C 379.212,67.7731 383.045,69.7731 386,73.5C 389.906,84.823 396.406,94.323 405.5,102C 413.898,107.063 421.731,112.896 429,119.5C 429.179,122.147 429.012,124.814 428.5,127.5C 428.515,129.634 429.015,131.634 430,133.5C 432.251,135.377 434.751,136.877 437.5,138C 448.423,138.588 455.59,144.088 459,154.5C 461.335,162.838 463.668,171.171 466,179.5C 467.461,182.928 469.295,186.095 471.5,189C 469.767,191.076 468.434,193.409 467.5,196C 471.04,203.245 473.874,210.745 476,218.5C 476.667,222.833 476.667,227.167 476,231.5C 474.933,232.943 473.766,234.276 472.5,235.5C 475.981,258.575 479.981,281.575 484.5,304.5C 484.32,309.528 482.486,313.861 479,317.5C 478.841,322.916 478.174,328.25 477,333.5C 473.104,337.725 469.604,342.225 466.5,347C 467.864,350.227 469.364,353.394 471,356.5C 472.676,362.166 470.509,364.999 464.5,365C 447.833,383 430.5,400.333 412.5,417C 400.456,424.357 389.122,432.69 378.5,442C 373.052,445.62 367.385,446.12 361.5,443.5C 360.094,445.566 358.76,447.732 357.5,450C 332.964,455.968 308.297,461.301 283.5,466C 279.167,466.667 274.833,466.667 270.5,466C 263.62,464.124 256.62,462.957 249.5,462.5C 244.025,461.712 239.525,463.379 236,467.5C 231.284,461.906 226.451,456.406 221.5,451C 216.646,450.38 211.813,450.547 207,451.5C 191.636,448.427 176.469,444.594 161.5,440C 158.163,438.667 155.163,436.834 152.5,434.5C 148.78,433.88 145.114,433.047 141.5,432C 140.74,430.559 140.074,429.059 139.5,427.5C 135.975,426.488 132.808,424.821 130,422.5C 126.333,415.5 122.667,408.5 119,401.5C 115.466,397.631 111.633,394.131 107.5,391C 100.228,386.781 93.3946,381.948 87,376.5C 86.2278,371.497 85.5611,366.497 85,361.5C 83.4422,359.641 81.6089,358.141 79.5,357C 68.9697,356.729 61.4697,351.896 57,342.5C 54.167,331.66 50.8337,320.993 47,310.5C 45.8589,308.391 44.3589,306.558 42.5,305C 44.1813,302.656 45.848,300.323 47.5,298C 41.2502,286.929 38.0835,275.095 38,262.5C 40.7306,260.939 41.8972,258.606 41.5,255.5C 38.7626,232.058 34.4293,209.058 28.5,186.5 Z"/></g>
<g><path style="opacity:1" fill="#fffd03" d="M 354.5,148.5 C 359.463,147.746 364.463,147.413 369.5,147.5C 378.086,148.64 386.086,151.473 393.5,156C 423.693,172.895 445.193,197.395 458,229.5C 464.765,252.756 461.098,274.089 447,293.5C 440.104,300.2 431.938,304.7 422.5,307C 399.531,311.078 376.531,311.411 353.5,308C 340.981,303.813 330.314,296.813 321.5,287C 311.521,285.059 301.521,283.226 291.5,281.5C 286.668,285.42 281.334,288.587 275.5,291C 260.755,293.125 249.422,287.958 241.5,275.5C 234.675,296.493 228.508,317.827 223,339.5C 220.872,348.566 217.205,356.9 212,364.5C 209.079,368.092 205.579,370.925 201.5,373C 190.174,375.565 178.841,378.065 167.5,380.5C 165.649,372.432 163.483,364.432 161,356.5C 160.333,350.833 160.333,345.167 161,339.5C 165.326,326.522 169.659,313.522 174,300.5C 175.881,292.785 175.881,285.118 174,277.5C 166.306,283.36 158.473,289.027 150.5,294.5C 147.314,284.744 143.981,275.077 140.5,265.5C 127.999,279.32 113.999,281.153 98.5,271C 76.7049,269.706 64.3716,258.206 61.5,236.5C 63.5892,219.897 72.5892,208.731 88.5,203C 90.74,202.023 93.0733,201.523 95.5,201.5C 100.844,201.666 106.177,201.499 111.5,201C 110.307,199.905 108.973,199.072 107.5,198.5C 96.8521,190.191 86.1854,181.857 75.5,173.5C 88.3058,164.591 101.639,156.424 115.5,149C 122.683,146.064 130.016,145.73 137.5,148C 162.838,155.166 180.504,170.999 190.5,195.5C 204.874,172.543 223.874,167.709 247.5,181C 251.667,184.5 255.833,188 260,191.5C 258.559,179.587 258.226,167.587 259,155.5C 260.294,144.606 264.128,134.773 270.5,126C 278.496,118.823 287.829,116.49 298.5,119C 302.779,120.473 306.779,122.473 310.5,125C 315.719,131.218 320.552,137.718 325,144.5C 324.034,156.438 323.701,168.438 324,180.5C 326.97,191.015 329.303,201.682 331,212.5C 334.765,210.702 338.598,209.035 342.5,207.5C 331.516,197.478 328.016,185.145 332,170.5C 336.077,159.589 343.577,152.256 354.5,148.5 Z"/></g>
<g><path style="opacity:0.988" fill="#5ce79b" d="M 247.5,-0.5 C 252.833,-0.5 258.167,-0.5 263.5,-0.5C 263.638,3.28608 264.305,3.28608 265.5,-0.5C 271.5,-0.5 277.5,-0.5 283.5,-0.5C 285.813,4.55584 287.813,4.55584 289.5,-0.5C 290.5,-0.5 291.5,-0.5 292.5,-0.5C 297.358,4.752 303.358,8.252 310.5,10C 313.5,13 316.5,16 319.5,19C 333.5,26.3333 347.5,33.6667 361.5,41C 370.771,44.1251 380.104,45.7918 389.5,46C 392.262,48.6085 394.095,51.7751 395,55.5C 396,53.8333 397.333,52.5 399,51.5C 400.419,52.4601 401.919,53.2935 403.5,54C 413.643,64.4751 424.143,74.6418 435,84.5C 441.832,93.1617 446.832,102.828 450,113.5C 450.333,113.833 450.667,114.167 451,114.5C 451.739,113.426 452.739,112.759 454,112.5C 455.52,113.697 456.687,115.197 457.5,117C 454.167,118.919 451.334,121.419 449,124.5C 448.133,128.956 448.466,133.289 450,137.5C 451.413,139.414 453.247,140.747 455.5,141.5C 456.71,138.341 456.71,135.174 455.5,132C 455.862,130.775 456.362,129.609 457,128.5C 458.649,132.082 460.149,135.749 461.5,139.5C 467.167,143 472.833,146.5 478.5,150C 486.224,155.612 489.391,163.112 488,172.5C 480.376,172.466 477.71,176.132 480,183.5C 482.341,187.346 485.675,190.012 490,191.5C 491.207,195.867 492.541,200.2 494,204.5C 499.659,206.444 502.992,210.444 504,216.5C 504.478,224.197 504.478,231.864 504,239.5C 506.364,242.69 508.864,245.69 511.5,248.5C 511.5,255.5 511.5,262.5 511.5,269.5C 509.991,264.166 508.157,258.832 506,253.5C 502.683,249.142 500.85,249.642 500.5,255C 502.114,259.887 502.281,264.721 501,269.5C 499.333,270.833 497.667,270.833 496,269.5C 495.435,261.491 494.769,253.491 494,245.5C 492.186,250.401 490.686,255.401 489.5,260.5C 490.531,261.7 491.365,263.034 492,264.5C 492.527,270.344 492.361,276.178 491.5,282C 490.797,291.524 493.464,299.857 499.5,307C 503.999,309.68 507.999,312.847 511.5,316.5C 511.5,324.167 511.5,331.833 511.5,339.5C 509.856,338.634 508.189,338.134 506.5,338C 504.818,340.69 503.318,343.523 502,346.5C 500.667,347.833 499.333,347.833 498,346.5C 496.615,347.551 495.615,348.884 495,350.5C 492.891,357.033 492.224,363.7 493,370.5C 498.77,379.55 498.437,388.55 492,397.5C 488.557,401.285 484.891,404.619 481,407.5C 479.159,415.067 477.825,422.734 477,430.5C 475.698,434.274 473.531,437.441 470.5,440C 469.216,440.684 468.049,440.517 467,439.5C 466.138,441.087 465.471,442.754 465,444.5C 463.667,445.167 462.333,445.833 461,446.5C 459.896,450.167 458.229,453.5 456,456.5C 454.667,455.167 453.333,453.833 452,452.5C 451.667,452.833 451.333,453.167 451,453.5C 450.667,461.833 450.333,470.167 450,478.5C 448.875,483.498 445.708,486.331 440.5,487C 435.542,488.278 432.709,486.445 432,481.5C 431.898,465.907 432.731,450.407 434.5,435C 434.018,429.653 432.852,424.487 431,419.5C 429.883,420.949 429.216,422.616 429,424.5C 428.833,427.667 428.667,430.833 428.5,434C 429.271,442.496 429.438,450.996 429,459.5C 428.667,459.833 428.333,460.167 428,460.5C 427.667,459.5 427.333,458.5 427,457.5C 426.833,459.5 426.667,461.5 426.5,463.5C 427.189,468.042 428.189,472.542 429.5,477C 429.545,481.2 428.212,484.866 425.5,488C 423.167,488.667 420.833,488.667 418.5,488C 416.613,484.341 415.113,480.508 414,476.5C 414.233,482.949 411.733,488.115 406.5,492C 405.551,492.617 404.718,492.451 404,491.5C 403.969,479.037 402.969,466.704 401,454.5C 399.826,464.456 398.826,474.456 398,484.5C 393.317,489.803 388.65,489.469 384,483.5C 383.519,479.469 382.853,475.469 382,471.5C 380.974,476.785 380.307,482.118 380,487.5C 379.692,488.308 379.192,488.975 378.5,489.5C 360.572,494.187 342.572,498.687 324.5,503C 293.212,506.927 264.212,500.593 237.5,484C 224.009,474.088 210.342,464.421 196.5,455C 187.509,449.668 177.842,447.668 167.5,449C 155.423,452.582 143.09,454.582 130.5,455C 125.859,456.603 121.192,458.103 116.5,459.5C 111.335,458.506 107.835,455.506 106,450.5C 103.499,438.643 100.499,426.977 97,415.5C 90.066,421.228 82.2326,423.228 73.5,421.5C 68.9741,423.953 64.1408,425.286 59,425.5C 51.2214,424.238 43.5548,422.571 36,420.5C 34.9505,421.517 33.7839,421.684 32.5,421C 30.0929,418.298 27.5929,415.798 25,413.5C 22.3864,416.387 19.5531,419.053 16.5,421.5C 13.7975,420.438 12.2975,418.438 12,415.5C 7.51074,378.628 5.84407,341.628 7,304.5C 7.6297,292.015 10.2964,280.015 15,268.5C 16,267.5 17,266.5 18,265.5C 16.4573,252.23 15.7906,238.897 16,225.5C 16.1936,220.758 18.5269,217.758 23,216.5C 23.6113,206.249 25.4447,196.249 28.5,186.5C 34.4293,209.058 38.7626,232.058 41.5,255.5C 41.8972,258.606 40.7306,260.939 38,262.5C 38.0835,275.095 41.2502,286.929 47.5,298C 45.848,300.323 44.1813,302.656 42.5,305C 44.3589,306.558 45.8589,308.391 47,310.5C 50.8337,320.993 54.167,331.66 57,342.5C 61.4697,351.896 68.9697,356.729 79.5,357C 81.6089,358.141 83.4422,359.641 85,361.5C 85.5611,366.497 86.2278,371.497 87,376.5C 93.3946,381.948 100.228,386.781 107.5,391C 111.633,394.131 115.466,397.631 119,401.5C 122.667,408.5 126.333,415.5 130,422.5C 132.808,424.821 135.975,426.488 139.5,427.5C 140.074,429.059 140.74,430.559 141.5,432C 145.114,433.047 148.78,433.88 152.5,434.5C 155.163,436.834 158.163,438.667 161.5,440C 176.469,444.594 191.636,448.427 207,451.5C 211.813,450.547 216.646,450.38 221.5,451C 226.451,456.406 231.284,461.906 236,467.5C 239.525,463.379 244.025,461.712 249.5,462.5C 256.62,462.957 263.62,464.124 270.5,466C 274.833,466.667 279.167,466.667 283.5,466C 308.297,461.301 332.964,455.968 357.5,450C 358.76,447.732 360.094,445.566 361.5,443.5C 367.385,446.12 373.052,445.62 378.5,442C 389.122,432.69 400.456,424.357 412.5,417C 430.5,400.333 447.833,383 464.5,365C 470.509,364.999 472.676,362.166 471,356.5C 469.364,353.394 467.864,350.227 466.5,347C 469.604,342.225 473.104,337.725 477,333.5C 478.174,328.25 478.841,322.916 479,317.5C 482.486,313.861 484.32,309.528 484.5,304.5C 479.981,281.575 475.981,258.575 472.5,235.5C 473.766,234.276 474.933,232.943 476,231.5C 476.667,227.167 476.667,222.833 476,218.5C 473.874,210.745 471.04,203.245 467.5,196C 468.434,193.409 469.767,191.076 471.5,189C 469.295,186.095 467.461,182.928 466,179.5C 463.668,171.171 461.335,162.838 459,154.5C 455.59,144.088 448.423,138.588 437.5,138C 434.751,136.877 432.251,135.377 430,133.5C 429.015,131.634 428.515,129.634 428.5,127.5C 429.012,124.814 429.179,122.147 429,119.5C 421.731,112.896 413.898,107.063 405.5,102C 396.406,94.323 389.906,84.823 386,73.5C 383.045,69.7731 379.212,67.7731 374.5,67.5C 374.785,65.712 374.452,64.0453 373.5,62.5C 369.77,61.1278 365.936,60.1278 362,59.5C 359.431,57.2662 356.598,55.4328 353.5,54C 341.051,51.0444 328.718,47.7111 316.5,44C 313.183,43.3916 309.849,42.8916 306.5,42.5C 302.182,43.3695 297.849,43.5361 293.5,43C 288.346,38.0119 283.346,32.8453 278.5,27.5C 276.269,28.9034 273.936,30.0701 271.5,31C 261.961,31.9592 252.628,30.9592 243.5,28C 238.5,27.3333 233.5,27.3333 228.5,28C 205.08,32.6173 181.747,37.6173 158.5,43C 155.323,44.8491 153.823,47.6824 154,51.5C 147.843,47.5088 141.676,47.6755 135.5,52C 125.01,61.4916 113.677,69.8249 101.5,77C 85.5799,91.7544 70.2465,106.921 55.5,122.5C 57.8835,99.4158 62.3835,76.7491 69,54.5C 77.814,29.173 95.6473,16.8396 122.5,17.5C 130.504,17.9336 138.504,18.4336 146.5,19C 159.946,21.5465 173.446,23.7132 187,25.5C 188.888,25.204 190.722,24.704 192.5,24C 195.833,21.3333 199.167,18.6667 202.5,16C 204.167,15.3333 205.833,15.3333 207.5,16C 208.729,17.5292 210.229,18.6959 212,19.5C 213.484,9.34608 219.317,4.17941 229.5,4C 230.376,5.58601 231.376,7.08601 232.5,8.5C 233.833,6.5 235.167,4.5 236.5,2.5C 240.595,2.2273 244.262,1.2273 247.5,-0.5 Z"/></g>
<g><path style="opacity:1" fill="#ff2218" d="M 288.5,141.5 C 293.029,141.496 296.529,143.496 299,147.5C 300.047,149.762 301.213,151.929 302.5,154C 299.848,161.953 299.014,170.12 300,178.5C 302.822,191.457 305.489,204.457 308,217.5C 309.399,233.812 309.733,250.146 309,266.5C 307.579,269.009 305.912,271.343 304,273.5C 294.951,242.3 287.618,210.634 282,178.5C 279.701,165.225 281.868,152.892 288.5,141.5 Z"/></g>
<g><path style="opacity:1" fill="#ff8d79" d="M 369.5,147.5 C 364.463,147.413 359.463,147.746 354.5,148.5C 357.186,147.009 360.186,146.343 363.5,146.5C 365.696,146.505 367.696,146.838 369.5,147.5 Z"/></g>
<g><path style="opacity:1" fill="#ff2618" d="M 361.5,169.5 C 366.046,169.268 370.379,170.101 374.5,172C 404.837,186.668 425.671,209.835 437,241.5C 440.827,257.335 436.994,270.835 425.5,282C 419.119,284.929 412.452,286.929 405.5,288C 392.833,288.667 380.167,288.667 367.5,288C 348.991,284.151 336.824,273.318 331,255.5C 329.617,242.549 335.117,234.049 347.5,230C 358.724,228.444 367.224,232.611 373,242.5C 374.042,245.804 372.875,247.971 369.5,249C 363.728,247.936 357.894,246.769 352,245.5C 345.218,246.039 342.551,249.706 344,256.5C 345.228,260.059 346.894,263.392 349,266.5C 356.155,272.327 364.322,275.827 373.5,277C 382.833,277.667 392.167,277.667 401.5,277C 411.133,274.361 417.967,268.528 422,259.5C 422.074,242.634 416.74,227.634 406,214.5C 396.396,203.891 385.896,194.391 374.5,186C 371.97,184.578 369.303,184.245 366.5,185C 357.441,192.512 353.275,190.345 354,178.5C 355.642,174.7 358.142,171.7 361.5,169.5 Z"/></g>
<g><path style="opacity:1" fill="#ff2618" d="M 125.5,170.5 C 146.631,173.786 161.131,185.453 169,205.5C 172.715,214.142 174.882,223.142 175.5,232.5C 175.545,239.2 174.045,245.533 171,251.5C 168.663,254.426 165.829,255.426 162.5,254.5C 161.902,253.205 161.402,251.872 161,250.5C 166.343,224.171 158.177,203.338 136.5,188C 130.31,185.073 124.31,181.907 118.5,178.5C 117.167,177.5 117.167,176.5 118.5,175.5C 121.077,174.057 123.41,172.39 125.5,170.5 Z"/></g>
<g><path style="opacity:0.824" fill="#68dca1" d="M 35.5,170.5 C 36.5747,175.448 34.908,179.448 30.5,182.5C 32.1667,178.5 33.8333,174.5 35.5,170.5 Z"/></g>
<g><path style="opacity:1" fill="#ff2518" d="M 220.5,197.5 C 226.394,196.943 231.727,198.443 236.5,202C 252.62,214.114 264.12,229.614 271,248.5C 272.456,254.097 272.789,259.763 272,265.5C 269.763,269.02 267.096,269.353 264,266.5C 260.057,257.614 256.39,248.614 253,239.5C 249.806,232.947 245.972,226.78 241.5,221C 237.928,219.595 234.261,219.262 230.5,220C 226.942,221.362 223.442,222.862 220,224.5C 218.739,224.241 217.739,223.574 217,222.5C 215.346,217.364 213.846,212.197 212.5,207C 213.522,202.476 216.189,199.309 220.5,197.5 Z"/></g>
<g><path style="opacity:1" fill="#ff5dac" d="M 107.5,198.5 C 108.973,199.072 110.307,199.905 111.5,201C 106.177,201.499 100.844,201.666 95.5,201.5C 99.7675,201.131 103.768,200.131 107.5,198.5 Z"/></g>
<g><path style="opacity:1" fill="#ff2918" d="M 97.5,224.5 C 109.665,224.158 118.165,229.491 123,240.5C 125.117,247.13 123.117,251.797 117,254.5C 115.775,254.138 114.609,253.638 113.5,253C 110.573,248.897 108.407,244.397 107,239.5C 105.611,237.773 103.944,236.439 102,235.5C 100.739,235.759 99.7387,236.426 99,237.5C 98.0607,249.83 93.7273,250.83 86,240.5C 85.3333,237.833 85.3333,235.167 86,232.5C 89.4977,229.183 93.3311,226.516 97.5,224.5 Z"/></g>
<g><path style="opacity:1" fill="#ff758d" d="M 229.5,246.5 C 231.529,248.021 232.362,250.021 232,252.5C 230.337,250.842 229.504,248.842 229.5,246.5 Z"/></g>
<g><path style="opacity:1" fill="#ff46c2" d="M 396.5,248.5 C 397.586,248.62 398.253,249.287 398.5,250.5C 398.167,251.167 397.833,251.833 397.5,252.5C 396.571,251.311 396.238,249.978 396.5,248.5 Z"/></g>
<g><path style="opacity:1" fill="#ff2618" d="M 202.5,259.5 C 205.365,259.055 207.865,259.722 210,261.5C 212.696,265.56 214.863,269.893 216.5,274.5C 210.315,297.893 203.815,321.226 197,344.5C 194.811,351.076 190.478,353.743 184,352.5C 183.333,349.833 183.333,347.167 184,344.5C 188.864,330.24 193.531,315.906 198,301.5C 200.102,291.627 199.935,281.793 197.5,272C 198.923,267.741 200.59,263.574 202.5,259.5 Z"/></g>
</svg>
