<?xml version="1.0" encoding="UTF-8"?>
<!DOCTYPE svg PUBLIC "-//W3C//DTD SVG 1.1//EN" "http://www.w3.org/Graphics/SVG/1.1/DTD/svg11.dtd">
<svg xmlns="http://www.w3.org/2000/svg" version="1.1" width="1000px" height="300px" style="shape-rendering:geometricPrecision; text-rendering:geometricPrecision; image-rendering:optimizeQuality; fill-rule:evenodd; clip-rule:evenodd" xmlns:xlink="http://www.w3.org/1999/xlink">
<g><path style="opacity:0.967" fill="#5cd28d" d="M 879.5,66.5 C 876.193,62.5737 873.36,58.2404 871,53.5C 863.791,44.8184 854.625,41.6517 843.5,44C 838.287,47.5461 834.12,52.0461 831,57.5C 828.2,65.9711 826.366,74.6377 825.5,83.5C 825.067,86.1656 824.567,88.8323 824,91.5C 823.617,92.056 823.117,92.3893 822.5,92.5C 822.37,79.906 823.704,67.406 826.5,55C 827.86,41.1262 835.526,32.6262 849.5,29.5C 857.035,30.3501 863.202,33.6834 868,39.5C 872.101,45.9327 875.768,52.5994 879,59.5C 879.497,61.8098 879.663,64.1432 879.5,66.5 Z"/></g>
<g><path style="opacity:0.271" fill="#3c5d31" d="M 431.5,47.5 C 421.726,44.5551 412.059,44.8885 402.5,48.5C 408.981,43.7529 416.314,42.2529 424.5,44C 427.187,44.7285 429.52,45.8951 431.5,47.5 Z"/></g>
<g><path style="opacity:0.989" fill="#fb11f8" d="M 879.5,66.5 C 878.805,79.4072 878.805,92.4072 879.5,105.5C 878.757,113.87 880.091,121.87 883.5,129.5C 883.711,131.424 884.377,131.757 885.5,130.5C 886.812,131.145 887.812,132.145 888.5,133.5C 885.578,134.798 882.578,135.798 879.5,136.5C 878.71,128.381 877.21,120.381 875,112.5C 874.586,103.069 874.92,93.7358 876,84.5C 872.622,79.5782 869.122,74.7449 865.5,70C 846.54,58.0422 833.206,62.5422 825.5,83.5C 826.366,74.6377 828.2,65.9711 831,57.5C 834.12,52.0461 838.287,47.5461 843.5,44C 854.625,41.6517 863.791,44.8184 871,53.5C 873.36,58.2404 876.193,62.5737 879.5,66.5 Z"/></g>
<g><path style="opacity:0.976" fill="#5dd993" d="M 431.5,47.5 C 432.791,47.2627 433.791,47.596 434.5,48.5C 435.287,50.1042 436.62,50.7709 438.5,50.5C 447.544,55.8776 454.544,63.2109 459.5,72.5C 451.833,66.3293 443.499,61.1626 434.5,57C 422.948,53.7826 412.282,55.4492 402.5,62C 388.528,73.1459 380.861,87.6459 379.5,105.5C 376.246,105.206 373.579,103.873 371.5,101.5C 371.833,100.833 372.167,100.167 372.5,99.5C 374.588,79.8522 382.921,63.5188 397.5,50.5C 399.075,49.5435 400.742,48.8769 402.5,48.5C 412.059,44.8885 421.726,44.5551 431.5,47.5 Z"/></g>
<g><path style="opacity:0.055" fill="#261f06" d="M 434.5,48.5 C 436.153,48.6596 437.486,49.3263 438.5,50.5C 436.62,50.7709 435.287,50.1042 434.5,48.5 Z"/></g>
<g><path style="opacity:0.998" fill="#fb0efa" d="M 459.5,72.5 C 464.841,78.1922 468.508,84.8589 470.5,92.5C 460.378,82.9374 448.378,76.7707 434.5,74C 418.596,73.5334 405.763,79.7001 396,92.5C 391.836,99.8265 388.502,107.493 386,115.5C 373.43,109.885 360.263,108.051 346.5,110C 326.834,112.57 311.667,122.07 301,138.5C 298.283,135.29 295.783,131.956 293.5,128.5C 302.596,113.272 315.93,103.938 333.5,100.5C 342.805,99.6462 352.139,99.3129 361.5,99.5C 362.833,99.5 364.167,99.5 365.5,99.5C 367.102,101.074 369.102,101.741 371.5,101.5C 373.579,103.873 376.246,105.206 379.5,105.5C 380.861,87.6459 388.528,73.1459 402.5,62C 412.282,55.4492 422.948,53.7826 434.5,57C 443.499,61.1626 451.833,66.3293 459.5,72.5 Z"/></g>
<g><path style="opacity:0.97" fill="#5cd38d" d="M 726.5,62.5 C 729.655,64.9045 733.321,66.5712 737.5,67.5C 739.14,68.3201 740.807,69.1534 742.5,70C 746.387,73.8874 750.221,77.7208 754,81.5C 755.989,85.6403 758.156,89.6403 760.5,93.5C 754.297,87.1302 747.631,81.2969 740.5,76C 734.423,72.6409 727.923,70.4742 721,69.5C 716.864,69.6563 713.031,70.823 709.5,73C 699.479,81.1977 688.813,88.3644 677.5,94.5C 675.292,93.0825 674.458,91.0825 675,88.5C 681.4,83.2535 687.9,78.2535 694.5,73.5C 698.034,72.6296 700.701,70.6296 702.5,67.5C 709.337,60.2964 717.337,58.6297 726.5,62.5 Z"/></g>
<g><path style="opacity:0.965" fill="#5ccc8b" d="M 918.5,62.5 C 921.295,64.8936 924.628,66.5603 928.5,67.5C 946.319,78.6965 960.319,93.6965 970.5,112.5C 970.672,113.492 970.338,114.158 969.5,114.5C 956.849,94.3447 939.516,79.8447 917.5,71C 902.449,68.6092 891.949,74.4426 886,88.5C 884.523,92.4299 883.356,96.4299 882.5,100.5C 882.573,102.027 881.906,103.027 880.5,103.5C 879.295,87.6003 884.629,74.4336 896.5,64C 903.661,60.0691 910.994,59.5691 918.5,62.5 Z"/></g>
<g><path style="opacity:0.999" fill="#fe1b1b" d="M 885.5,130.5 C 885.158,129.662 884.492,129.328 883.5,129.5C 880.091,121.87 878.757,113.87 879.5,105.5C 880.338,105.158 880.672,104.492 880.5,103.5C 881.906,103.027 882.573,102.027 882.5,100.5C 889.939,87.7924 900.939,83.2924 915.5,87C 947.551,99.7158 969.384,122.216 981,154.5C 984.34,171.146 981.34,186.479 972,200.5C 965.042,207.729 956.542,211.895 946.5,213C 932.519,214.296 918.519,214.629 904.5,214C 891.901,211.394 881.235,205.394 872.5,196C 864.644,194.577 856.81,193.077 849,191.5C 834.837,203.227 822.004,201.894 810.5,187.5C 804.06,206.582 798.226,225.915 793,245.5C 790.235,254.257 784.735,260.424 776.5,264C 768.356,266.58 760.022,268.08 751.5,268.5C 750.861,264.473 750.028,260.473 749,256.5C 748.8,254.68 747.966,253.347 746.5,252.5C 745.519,247.871 745.352,243.204 746,238.5C 749.281,228.161 752.447,217.828 755.5,207.5C 756.931,207.119 757.764,206.119 758,204.5C 758.499,200.848 758.665,197.182 758.5,193.5C 758.778,191.654 758.111,190.32 756.5,189.5C 750.572,194.289 744.239,198.289 737.5,201.5C 736.749,195.151 735.082,189.151 732.5,183.5C 732.5,182.167 732.5,180.833 732.5,179.5C 729.213,180.264 726.546,182.097 724.5,185C 715.922,189.923 707.589,189.59 699.5,184C 678.503,182.005 668.669,170.505 670,149.5C 673.872,139.963 680.706,133.463 690.5,130C 696.085,128.814 701.751,128.148 707.5,128C 704.28,125.563 700.947,123.397 697.5,121.5C 697.027,120.094 696.027,119.427 694.5,119.5C 693.71,118.599 692.71,117.932 691.5,117.5C 688.008,114.158 684.175,111.158 680,108.5C 679.333,107.5 679.333,106.5 680,105.5C 681.652,104.601 683.152,103.601 684.5,102.5C 686.308,102.509 687.975,102.009 689.5,101C 714.665,80.2092 738.165,82.0426 760,106.5C 763.841,112.178 767.174,118.178 770,124.5C 782.532,105.487 798.365,102.32 817.5,115C 820.28,116.812 822.78,118.979 825,121.5C 824.423,117.232 823.923,112.898 823.5,108.5C 822.833,106.5 822.167,104.5 821.5,102.5C 822.207,99.2139 822.54,95.8806 822.5,92.5C 823.117,92.3893 823.617,92.056 824,91.5C 824.567,88.8323 825.067,86.1656 825.5,83.5C 833.206,62.5422 846.54,58.0422 865.5,70C 869.122,74.7449 872.622,79.5782 876,84.5C 874.92,93.7358 874.586,103.069 875,112.5C 877.21,120.381 878.71,128.381 879.5,136.5C 882.578,135.798 885.578,134.798 888.5,133.5C 887.812,132.145 886.812,131.145 885.5,130.5 Z"/></g>
<g><path style="opacity:0.224" fill="#38633a" d="M 918.5,62.5 C 922.42,63.1266 925.753,64.7933 928.5,67.5C 924.628,66.5603 921.295,64.8936 918.5,62.5 Z"/></g>
<g><path style="opacity:0.106" fill="#365132" d="M 726.5,62.5 C 730.852,62.8457 734.519,64.5124 737.5,67.5C 733.321,66.5712 729.655,64.9045 726.5,62.5 Z"/></g>
<g><path style="opacity:0.278" fill="#436c3c" d="M 702.5,67.5 C 700.701,70.6296 698.034,72.6296 694.5,73.5C 696.403,70.5416 699.07,68.5416 702.5,67.5 Z"/></g>
<g><path style="opacity:0.998" fill="#fa13f6" d="M 760.5,93.5 C 760.427,95.0269 761.094,96.0269 762.5,96.5C 764.649,100.959 766.982,105.293 769.5,109.5C 769.372,111.655 769.872,113.655 771,115.5C 785.555,91.4685 803.055,89.1352 823.5,108.5C 823.923,112.898 824.423,117.232 825,121.5C 822.78,118.979 820.28,116.812 817.5,115C 798.365,102.32 782.532,105.487 770,124.5C 767.174,118.178 763.841,112.178 760,106.5C 738.165,82.0426 714.665,80.2092 689.5,101C 687.975,102.009 686.308,102.509 684.5,102.5C 681.45,100.451 679.117,97.7843 677.5,94.5C 688.813,88.3644 699.479,81.1977 709.5,73C 713.031,70.823 716.864,69.6563 721,69.5C 727.923,70.4742 734.423,72.6409 740.5,76C 747.631,81.2969 754.297,87.1302 760.5,93.5 Z"/></g>
<g><path style="opacity:0.999" fill="#f816f6" d="M 969.5,114.5 C 971.839,117.915 974.173,121.248 976.5,124.5C 985.706,139.804 990.04,156.471 989.5,174.5C 988.883,174.611 988.383,174.944 988,175.5C 987.68,179.214 987.18,182.881 986.5,186.5C 981.746,209.423 967.746,221.923 944.5,224C 936.68,224.704 928.846,225.204 921,225.5C 910.049,225.553 899.883,222.72 890.5,217C 884.813,212.311 879.479,207.311 874.5,202C 866.899,200.983 859.399,199.483 852,197.5C 848.884,201.158 845.051,203.991 840.5,206C 827.587,208.709 818.254,204.209 812.5,192.5C 811.914,192.709 811.414,193.043 811,193.5C 810.728,196.254 810.228,198.921 809.5,201.5C 808.911,208.116 807.578,214.45 805.5,220.5C 803.581,224.857 802.581,229.523 802.5,234.5C 802.5,234.833 802.5,235.167 802.5,235.5C 801.883,235.611 801.383,235.944 801,236.5C 798.653,246.914 795.986,257.248 793,267.5C 790.476,275.741 785.309,281.574 777.5,285C 769.292,287.541 760.958,289.374 752.5,290.5C 749.906,279.429 747.573,268.429 745.5,257.5C 746.301,255.958 746.634,254.292 746.5,252.5C 747.966,253.347 748.8,254.68 749,256.5C 750.028,260.473 750.861,264.473 751.5,268.5C 760.022,268.08 768.356,266.58 776.5,264C 784.735,260.424 790.235,254.257 793,245.5C 798.226,225.915 804.06,206.582 810.5,187.5C 822.004,201.894 834.837,203.227 849,191.5C 856.81,193.077 864.644,194.577 872.5,196C 881.235,205.394 891.901,211.394 904.5,214C 918.519,214.629 932.519,214.296 946.5,213C 956.542,211.895 965.042,207.729 972,200.5C 981.34,186.479 984.34,171.146 981,154.5C 969.384,122.216 947.551,99.7158 915.5,87C 900.939,83.2924 889.939,87.7924 882.5,100.5C 883.356,96.4299 884.523,92.4299 886,88.5C 891.949,74.4426 902.449,68.6092 917.5,71C 939.516,79.8447 956.849,94.3447 969.5,114.5 Z"/></g>
<g><path style="opacity:0.997" fill="#fe1c1c" d="M 470.5,92.5 C 473.391,96.1056 475.391,100.106 476.5,104.5C 476.5,108.167 476.5,111.833 476.5,115.5C 472.022,133.568 475.022,135.401 485.5,121C 497.178,110.439 510.178,108.606 524.5,115.5C 523.902,110.187 523.569,104.854 523.5,99.5C 535.842,99.2114 548.176,99.0447 560.5,99C 564.37,100.287 568.036,101.953 571.5,104C 576.373,108.378 581.373,112.545 586.5,116.5C 589.698,117.854 590.864,120.187 590,123.5C 585.7,128.801 581.034,133.801 576,138.5C 576.619,147.141 577.452,155.808 578.5,164.5C 577.902,169.46 576.402,174.127 574,178.5C 568.9,185.057 564.067,191.724 559.5,198.5C 542.824,191.02 528.491,180.187 516.5,166C 516.167,165.833 515.833,165.667 515.5,165.5C 514.571,166.689 514.238,168.022 514.5,169.5C 512.825,172.507 512.159,175.84 512.5,179.5C 511.776,182.549 509.776,184.215 506.5,184.5C 505.207,183.842 503.707,183.508 502,183.5C 495.821,184.436 489.655,185.436 483.5,186.5C 482.476,187.852 481.476,189.185 480.5,190.5C 478.091,192.902 476.091,195.569 474.5,198.5C 473.833,198.833 473.167,199.167 472.5,199.5C 455.319,207.85 437.653,208.683 419.5,202C 416.661,200.08 413.661,198.413 410.5,197C 408,194.5 405.5,192 403,189.5C 400.585,192.014 398.419,194.681 396.5,197.5C 394.228,198.441 392.228,199.774 390.5,201.5C 381.434,206.699 372.101,211.366 362.5,215.5C 361.068,203.7 359.068,192.033 356.5,180.5C 357.301,173.463 358.968,166.63 361.5,160C 359.392,156.417 356.392,155.583 352.5,157.5C 350.164,159.004 348.331,161.004 347,163.5C 346.972,176.386 345.472,189.053 342.5,201.5C 339.861,206.139 336.194,209.806 331.5,212.5C 316.075,216.97 303.742,212.804 294.5,200C 284.507,200.005 276.84,195.838 271.5,187.5C 268.669,191.653 267.002,196.32 266.5,201.5C 265,205.326 264.334,209.326 264.5,213.5C 260.521,225.74 256.687,238.074 253,250.5C 250.716,254.949 247.549,258.616 243.5,261.5C 233.598,265.432 223.264,267.765 212.5,268.5C 211.31,262.444 209.81,256.444 208,250.5C 207.333,245.833 207.333,241.167 208,236.5C 211.268,225.363 214.934,214.363 219,203.5C 219,194.833 219,186.167 219,177.5C 219.892,174.716 221.058,172.05 222.5,169.5C 216.728,169.87 210.895,168.87 205,166.5C 203.144,167.202 201.977,168.536 201.5,170.5C 199.11,171.891 197.443,173.891 196.5,176.5C 190.273,180.02 183.607,182.354 176.5,183.5C 163.642,182.828 150.642,181.994 137.5,181C 126.572,178.468 115.906,175.135 105.5,171C 98.2021,169.717 90.8688,169.383 83.5,170C 82.944,170.383 82.6107,170.883 82.5,171.5C 75.6006,170.435 69.6006,172.102 64.5,176.5C 57.7504,181.076 51.4171,186.242 45.5,192C 40.4323,194.434 35.099,195.934 29.5,196.5C 24.6027,197.879 19.6027,198.879 14.5,199.5C 13.5533,190.211 11.8866,181.044 9.5,172C 14.6516,151.173 27.3182,136.84 47.5,129C 52.3964,127.287 57.3964,125.954 62.5,125C 73.8284,124.5 85.1618,124.333 96.5,124.5C 99.3651,112.802 106.698,105.635 118.5,103C 142.247,101.113 164.247,106.28 184.5,118.5C 187.613,114.213 190.946,110.047 194.5,106C 201.536,101.864 208.869,101.364 216.5,104.5C 218.67,106.086 221.004,107.42 223.5,108.5C 227.608,112.114 230.775,116.447 233,121.5C 240.389,110.062 250.889,105.562 264.5,108C 268.188,109.513 271.855,111.013 275.5,112.5C 279.833,115.833 284.167,119.167 288.5,122.5C 289.419,125.089 291.086,127.089 293.5,128.5C 295.783,131.956 298.283,135.29 301,138.5C 311.667,122.07 326.834,112.57 346.5,110C 360.263,108.051 373.43,109.885 386,115.5C 388.502,107.493 391.836,99.8265 396,92.5C 405.763,79.7001 418.596,73.5334 434.5,74C 448.378,76.7707 460.378,82.9374 470.5,92.5 Z"/></g>
<g><path style="opacity:0.964" fill="#5ed390" d="M 563.5,85.5 C 563.953,86.4584 564.619,87.2917 565.5,88C 564.906,88.4643 564.239,88.631 563.5,88.5C 557.314,85.9841 550.814,84.9841 544,85.5C 535.809,85.6058 527.642,86.1058 519.5,87C 519.123,93.0709 519.123,99.2375 519.5,105.5C 515.239,104.751 511.239,103.251 507.5,101C 499.705,99.4012 492.705,101.068 486.5,106C 483.297,109.371 479.964,112.538 476.5,115.5C 476.5,111.833 476.5,108.167 476.5,104.5C 484.954,95.074 495.288,92.2407 507.5,96C 509.047,97.8492 510.881,99.3492 513,100.5C 513.1,93.5807 513.267,86.7474 513.5,80C 523.502,78.8634 533.502,77.6967 543.5,76.5C 551.656,76.5167 558.323,79.5167 563.5,85.5 Z"/></g>
<g><path style="opacity:0.039" fill="#404d2b" d="M 112.5,83.5 C 107.167,83.5 101.833,83.5 96.5,83.5C 101.811,81.0417 107.145,81.0417 112.5,83.5 Z"/></g>
<g><path style="opacity:1" fill="#62f6f9" d="M 846.5,82.5 C 852.612,82.9379 856.279,86.2712 857.5,92.5C 855.58,98.7069 855.08,105.04 856,111.5C 862.25,133.751 864.584,156.418 863,179.5C 862.163,181.844 860.829,183.844 859,185.5C 852.308,161.086 846.641,136.419 842,111.5C 840.264,101.215 841.764,91.548 846.5,82.5 Z"/></g>
<g><path style="opacity:0.97" fill="#5cd28e" d="M 96.5,83.5 C 101.833,83.5 107.167,83.5 112.5,83.5C 122.116,84.3653 131.45,86.3653 140.5,89.5C 142.339,92.1347 145.006,93.4681 148.5,93.5C 150.819,93.9925 152.819,94.9925 154.5,96.5C 154.158,97.3382 153.492,97.6716 152.5,97.5C 137.007,91.8624 121.007,89.3624 104.5,90C 91.8939,94.1076 83.8939,102.608 80.5,115.5C 70.5166,116.332 60.5166,116.832 50.5,117C 27.9901,120.048 10.9901,131.214 -0.5,150.5C -0.5,145.833 -0.5,141.167 -0.5,136.5C 5.33756,128.913 12.6709,123.246 21.5,119.5C 23.5643,119.313 25.5643,118.813 27.5,118C 28.2524,117.329 28.5858,116.496 28.5,115.5C 42.6667,113.027 57,111.86 71.5,112C 73.1204,102.001 78.1204,93.6678 86.5,87C 89.7556,85.5263 93.089,84.3597 96.5,83.5 Z"/></g>
<g><path style="opacity:0.968" fill="#5bd18e" d="M 205.5,92.5 C 197.249,89.3547 189.249,89.8547 181.5,94C 177.508,98.6589 174.342,103.826 172,109.5C 168.977,107.302 166.144,104.969 163.5,102.5C 164.458,102.047 165.292,101.381 166,100.5C 171.753,84.8685 182.253,80.0352 197.5,86C 200.355,88.0308 203.022,90.1975 205.5,92.5 Z"/></g>
<g><path style="opacity:0.998" fill="#fa11f6" d="M 563.5,88.5 C 565.336,90.588 567.669,91.9213 570.5,92.5C 571.167,93.5 571.833,94.5 572.5,95.5C 572.427,97.0269 573.094,98.0269 574.5,98.5C 578.669,102.843 582.835,107.176 587,111.5C 587.64,113.265 587.473,114.932 586.5,116.5C 581.373,112.545 576.373,108.378 571.5,104C 568.036,101.953 564.37,100.287 560.5,99C 548.176,99.0447 535.842,99.2114 523.5,99.5C 523.569,104.854 523.902,110.187 524.5,115.5C 510.178,108.606 497.178,110.439 485.5,121C 475.022,135.401 472.022,133.568 476.5,115.5C 479.964,112.538 483.297,109.371 486.5,106C 492.705,101.068 499.705,99.4012 507.5,101C 511.239,103.251 515.239,104.751 519.5,105.5C 519.123,99.2375 519.123,93.0709 519.5,87C 527.642,86.1058 535.809,85.6058 544,85.5C 550.814,84.9841 557.314,85.9841 563.5,88.5 Z"/></g>
<g><path style="opacity:0.906" fill="#5a8164" d="M 563.5,85.5 C 566.091,87.4244 568.425,89.7578 570.5,92.5C 567.669,91.9213 565.336,90.588 563.5,88.5C 564.239,88.631 564.906,88.4643 565.5,88C 564.619,87.2917 563.953,86.4584 563.5,85.5 Z"/></g>
<g><path style="opacity:0.999" fill="#fb10fa" d="M 152.5,97.5 C 155.124,98.4942 157.79,99.4942 160.5,100.5C 161.71,100.932 162.71,101.599 163.5,102.5C 166.144,104.969 168.977,107.302 172,109.5C 174.342,103.826 177.508,98.6589 181.5,94C 189.249,89.8547 197.249,89.3547 205.5,92.5C 210.047,94.1138 213.38,97.1138 215.5,101.5C 216.11,102.391 216.443,103.391 216.5,104.5C 208.869,101.364 201.536,101.864 194.5,106C 190.946,110.047 187.613,114.213 184.5,118.5C 164.247,106.28 142.247,101.113 118.5,103C 106.698,105.635 99.3651,112.802 96.5,124.5C 85.1618,124.333 73.8284,124.5 62.5,125C 57.3964,125.954 52.3964,127.287 47.5,129C 27.3182,136.84 14.6516,151.173 9.5,172C 11.8866,181.044 13.5533,190.211 14.5,199.5C 19.6027,198.879 24.6027,197.879 29.5,196.5C 28.7377,198.262 27.4044,199.262 25.5,199.5C 16.8272,201.836 8.16057,204.169 -0.5,206.5C -0.5,187.833 -0.5,169.167 -0.5,150.5C 10.9901,131.214 27.9901,120.048 50.5,117C 60.5166,116.832 70.5166,116.332 80.5,115.5C 83.8939,102.608 91.8939,94.1076 104.5,90C 121.007,89.3624 137.007,91.8624 152.5,97.5 Z"/></g>
<g><path style="opacity:0.082" fill="#314f30" d="M 140.5,89.5 C 143.545,90.2794 146.211,91.6127 148.5,93.5C 145.006,93.4681 142.339,92.1347 140.5,89.5 Z"/></g>
<g><path style="opacity:0.97" fill="#5cd08e" d="M 247.5,90.5 C 248.486,92.4077 250.152,93.4077 252.5,93.5C 253.167,93.8333 253.833,94.1667 254.5,94.5C 255.506,95.3957 255.506,96.0623 254.5,96.5C 241.245,93.0284 230.912,97.0284 223.5,108.5C 221.004,107.42 218.67,106.086 216.5,104.5C 216.443,103.391 216.11,102.391 215.5,101.5C 218.233,98.7606 221.233,96.4273 224.5,94.5C 226.693,93.3195 229.026,92.3195 231.5,91.5C 232.298,91.0431 232.631,90.3764 232.5,89.5C 237.713,87.9758 242.713,88.3092 247.5,90.5 Z"/></g>
<g><path style="opacity:0.955" fill="#5cc285" d="M 821.5,102.5 C 822.167,104.5 822.833,106.5 823.5,108.5C 803.055,89.1352 785.555,91.4685 771,115.5C 769.872,113.655 769.372,111.655 769.5,109.5C 772.068,103.275 776.068,98.2746 781.5,94.5C 783.606,93.2171 785.94,92.3838 788.5,92C 789.252,91.3292 789.586,90.4959 789.5,89.5C 795.315,87.9225 800.982,88.4225 806.5,91C 812.231,93.8996 817.231,97.733 821.5,102.5 Z"/></g>
<g><path style="opacity:0.184" fill="#3b4e28" d="M 232.5,89.5 C 232.631,90.3764 232.298,91.0431 231.5,91.5C 229.026,92.3195 226.693,93.3195 224.5,94.5C 226.489,91.8342 229.156,90.1675 232.5,89.5 Z"/></g>
<g><path style="opacity:0.149" fill="#334427" d="M 247.5,90.5 C 249.674,90.7497 251.341,91.7497 252.5,93.5C 250.152,93.4077 248.486,92.4077 247.5,90.5 Z"/></g>
<g><path style="opacity:0.161" fill="#394e2a" d="M 789.5,89.5 C 789.586,90.4959 789.252,91.3292 788.5,92C 785.94,92.3838 783.606,93.2171 781.5,94.5C 783.489,91.8342 786.156,90.1675 789.5,89.5 Z"/></g>
<g><path style="opacity:0.137" fill="#2a2f11" d="M 357.5,93.5 C 347.473,93.3012 337.473,93.6345 327.5,94.5C 332.747,92.0146 338.413,91.0146 344.5,91.5C 348.167,91.6667 351.833,91.8333 355.5,92C 356.416,92.2784 357.082,92.7784 357.5,93.5 Z"/></g>
<g><path style="opacity:0.961" fill="#5ed994" d="M 357.5,93.5 C 357.833,93.5 358.167,93.5 358.5,93.5C 360.363,96.1648 363.03,97.6648 366.5,98C 367.712,99.1068 367.379,99.6068 365.5,99.5C 364.167,99.5 362.833,99.5 361.5,99.5C 357.681,98.8344 353.681,98.5011 349.5,98.5C 343.902,98.2762 338.569,98.9429 333.5,100.5C 315.93,103.938 302.596,113.272 293.5,128.5C 291.086,127.089 289.419,125.089 288.5,122.5C 288.5,121.833 288.833,121.5 289.5,121.5C 291.9,119.704 293.567,117.37 294.5,114.5C 299.588,107.805 305.922,102.805 313.5,99.5C 315.933,99.7271 317.599,98.7271 318.5,96.5C 321.303,95.0721 324.303,94.4054 327.5,94.5C 337.473,93.6345 347.473,93.3012 357.5,93.5 Z"/></g>
<g><path style="opacity:1" fill="#62f6f8" d="M 425.5,92.5 C 434.593,92.4753 442.926,94.9753 450.5,100C 457.077,104.559 459.243,110.726 457,118.5C 455.274,122.953 453.274,127.286 451,131.5C 447.833,134.667 444.667,137.833 441.5,141C 433.289,146.266 425.289,151.766 417.5,157.5C 422.736,165.237 429.403,171.404 437.5,176C 444.518,178.917 450.351,177.417 455,171.5C 458.3,164.908 461.967,158.574 466,152.5C 473.248,164.828 471.415,175.661 460.5,185C 441.382,192.129 425.215,187.963 412,172.5C 408.646,167.793 405.813,162.793 403.5,157.5C 400.164,156.76 396.83,156.094 393.5,155.5C 392.561,165.147 389.728,174.147 385,182.5C 382.636,184.363 380.136,186.029 377.5,187.5C 376.052,185.055 375.385,182.388 375.5,179.5C 376.146,174.391 377.313,169.391 379,164.5C 380.813,150.628 374.98,141.795 361.5,138C 345.071,136.77 334.238,143.936 329,159.5C 328.648,169.19 327.981,178.856 327,188.5C 323.59,196.437 318.423,197.604 311.5,192C 305.365,184.027 303.865,175.193 307,165.5C 311.174,159.154 314.841,152.488 318,145.5C 325.86,135.148 336.36,129.315 349.5,128C 360.496,126.114 370.83,127.78 380.5,133C 384.076,136.902 387.242,141.069 390,145.5C 394.111,144.596 398.278,144.263 402.5,144.5C 401.966,131.371 404.133,118.704 409,106.5C 413.198,100.123 418.698,95.4563 425.5,92.5 Z"/></g>
<g><path style="opacity:0.161" fill="#4b5957" d="M 760.5,93.5 C 761.906,93.9731 762.573,94.9731 762.5,96.5C 761.094,96.0269 760.427,95.0269 760.5,93.5 Z"/></g>
<g><path style="opacity:0.99" fill="#f90ef3" d="M 254.5,96.5 C 254.842,97.3382 255.508,97.6716 256.5,97.5C 258.531,99.755 261.198,101.088 264.5,101.5C 268.446,104.779 272.112,108.446 275.5,112.5C 271.855,111.013 268.188,109.513 264.5,108C 250.889,105.562 240.389,110.062 233,121.5C 230.775,116.447 227.608,112.114 223.5,108.5C 230.912,97.0284 241.245,93.0284 254.5,96.5 Z"/></g>
<g><path style="opacity:0.561" fill="#495449" d="M 254.5,94.5 C 256.404,94.7376 257.738,95.7376 258.5,97.5C 257.833,97.5 257.167,97.5 256.5,97.5C 255.508,97.6716 254.842,97.3382 254.5,96.5C 255.506,96.0623 255.506,95.3957 254.5,94.5 Z"/></g>
<g><path style="opacity:0.2" fill="#572b50" d="M 154.5,96.5 C 156.795,97.4746 158.795,98.8079 160.5,100.5C 157.79,99.4942 155.124,98.4942 152.5,97.5C 153.492,97.6716 154.158,97.3382 154.5,96.5 Z"/></g>
<g><path style="opacity:0.016" fill="#322914" d="M 318.5,96.5 C 317.599,98.7271 315.933,99.7271 313.5,99.5C 314.659,97.7497 316.326,96.7497 318.5,96.5 Z"/></g>
<g><path style="opacity:0.212" fill="#58214a" d="M 572.5,95.5 C 573.906,95.9731 574.573,96.9731 574.5,98.5C 573.094,98.0269 572.427,97.0269 572.5,95.5 Z"/></g>
<g><path style="opacity:0.847" fill="#98229d" d="M 256.5,97.5 C 257.167,97.5 257.833,97.5 258.5,97.5C 260.882,98.3507 262.882,99.684 264.5,101.5C 261.198,101.088 258.531,99.755 256.5,97.5 Z"/></g>
<g><path style="opacity:1" fill="#c854dd" d="M 361.5,99.5 C 352.139,99.3129 342.805,99.6462 333.5,100.5C 338.569,98.9429 343.902,98.2762 349.5,98.5C 353.681,98.5011 357.681,98.8344 361.5,99.5 Z"/></g>
<g><path style="opacity:0.898" fill="#57976b" d="M 358.5,93.5 C 363.646,94.5432 368.313,96.5432 372.5,99.5C 372.167,100.167 371.833,100.833 371.5,101.5C 369.102,101.741 367.102,101.074 365.5,99.5C 367.379,99.6068 367.712,99.1068 366.5,98C 363.03,97.6648 360.363,96.1648 358.5,93.5 Z"/></g>
<g><path style="opacity:1" fill="#fc201d" d="M 426.5,101.5 C 444.344,103.209 449.844,112.209 443,128.5C 436.16,135.956 427.66,140.289 417.5,141.5C 413.06,129.992 413.893,118.659 420,107.5C 422.063,105.266 424.229,103.266 426.5,101.5 Z"/></g>
<g><path style="opacity:1" fill="#64f5f7" d="M 903.5,104.5 C 907.273,104.263 910.94,104.763 914.5,106C 936.423,116.591 952.256,133.091 962,155.5C 964.757,166.577 963.757,177.244 959,187.5C 954.336,192.617 948.503,195.45 941.5,196C 929.833,196.667 918.167,196.667 906.5,196C 894.482,192.921 885.982,185.754 881,174.5C 878.47,164.065 881.97,156.565 891.5,152C 900.616,150.145 907.782,152.979 913,160.5C 914.033,163.217 913.2,165.051 910.5,166C 906.166,165.069 901.666,164.235 897,163.5C 890.977,164.192 888.977,167.526 891,173.5C 892.833,179.333 896.667,183.167 902.5,185C 913.246,188.368 924.246,189.368 935.5,188C 951.448,182.504 955.948,172.004 949,156.5C 946.588,151.341 943.921,146.341 941,141.5C 932.768,132.598 923.934,124.431 914.5,117C 910.639,114.797 907.305,115.464 904.5,119C 899.262,119.42 897.096,116.92 898,111.5C 899.382,108.695 901.216,106.361 903.5,104.5 Z"/></g>
<g><path style="opacity:1" fill="#67f3f5" d="M 719.5,104.5 C 736.324,107.824 747.824,117.49 754,133.5C 759.455,145.058 759.788,156.725 755,168.5C 753.247,169.627 751.413,170.627 749.5,171.5C 748.029,170.619 747.196,169.286 747,167.5C 751.427,148.112 745.927,132.279 730.5,120C 725.212,117.071 719.878,114.238 714.5,111.5C 713.417,110.635 713.251,109.635 714,108.5C 716.015,107.303 717.849,105.97 719.5,104.5 Z"/></g>
<g><path style="opacity:0.29" fill="#546751" d="M 970.5,112.5 C 973.023,116.213 975.023,120.213 976.5,124.5C 974.173,121.248 971.839,117.915 969.5,114.5C 970.338,114.158 970.672,113.492 970.5,112.5 Z"/></g>
<g><path style="opacity:0.216" fill="#3b4e2b" d="M 28.5,115.5 C 28.5858,116.496 28.2524,117.329 27.5,118C 25.5643,118.813 23.5643,119.313 21.5,119.5C 23.2659,117.441 25.5992,116.107 28.5,115.5 Z"/></g>
<g><path style="opacity:1" fill="#67f3f6" d="M 543.5,117.5 C 548.179,117.334 552.845,117.501 557.5,118C 564.723,120.07 565.723,123.403 560.5,128C 557.622,128.752 555.622,130.418 554.5,133C 557.08,144.718 558.246,156.551 558,168.5C 556.954,170.09 555.787,171.59 554.5,173C 551.478,173.164 548.811,172.164 546.5,170C 537.514,160.35 527.847,151.35 517.5,143C 514.611,140.388 511.278,138.555 507.5,137.5C 504.164,138.672 501.997,141.005 501,144.5C 498.326,155.53 495.492,166.53 492.5,177.5C 489.613,174.561 487.947,171.061 487.5,167C 485.688,151.395 491.022,139.062 503.5,130C 506.167,129.333 508.833,129.333 511.5,130C 522.167,136.667 532.833,143.333 543.5,150C 544.448,150.483 545.448,150.649 546.5,150.5C 545.653,139.487 544.653,128.487 543.5,117.5 Z"/></g>
<g><path style="opacity:0.157" fill="#2b3312" d="M 691.5,117.5 C 692.71,117.932 693.71,118.599 694.5,119.5C 692.5,119.5 690.5,119.5 688.5,119.5C 689.29,118.599 690.29,117.932 691.5,117.5 Z"/></g>
<g><path style="opacity:0.18" fill="#344321" d="M 294.5,114.5 C 293.567,117.37 291.9,119.704 289.5,121.5C 290.433,118.63 292.1,116.296 294.5,114.5 Z"/></g>
<g><path style="opacity:1" fill="#62f6f8" d="M 120.5,121.5 C 137.507,121.332 153.84,124.499 169.5,131C 177,135.833 183.167,142 188,149.5C 189.92,157.164 187.087,161.997 179.5,164C 167.5,164.667 155.5,164.667 143.5,164C 131.654,161.273 119.988,157.94 108.5,154C 79.3395,147.835 54.6728,155.501 34.5,177C 32.5594,177.743 30.7261,177.576 29,176.5C 28.3333,174.167 28.3333,171.833 29,169.5C 35.6264,158.259 45.1264,150.425 57.5,146C 76.4534,144.565 95.4534,144.065 114.5,144.5C 112.899,138.05 113.232,131.717 115.5,125.5C 117.21,124.113 118.877,122.779 120.5,121.5 Z"/></g>
<g><path style="opacity:1" fill="#64f4f7" d="M 204.5,121.5 C 209.952,121.144 213.785,123.477 216,128.5C 221.239,136.555 220.572,143.888 214,150.5C 206.792,144.084 202.792,136.084 202,126.5C 203.094,124.922 203.928,123.255 204.5,121.5 Z"/></g>
<g><path style="opacity:0.951" fill="#5cc988" d="M 688.5,119.5 C 690.5,119.5 692.5,119.5 694.5,119.5C 696.027,119.427 697.027,120.094 697.5,121.5C 679.147,124.855 669.147,135.855 667.5,154.5C 668.431,170.223 676.097,181.056 690.5,187C 695.731,186.515 700.065,188.181 703.5,192C 707.958,194.141 712.625,194.807 717.5,194C 722.601,191.067 726.935,187.234 730.5,182.5C 731.183,182.863 731.85,183.196 732.5,183.5C 734.184,191.757 736.184,199.923 738.5,208C 739.5,208.667 740.5,208.667 741.5,208C 747.039,202.956 752.706,198.123 758.5,193.5C 758.665,197.182 758.499,200.848 758,204.5C 757.764,206.119 756.931,207.119 755.5,207.5C 755.762,206.022 755.429,204.689 754.5,203.5C 748.667,207.836 743.333,212.669 738.5,218C 737.207,218.49 735.873,218.657 734.5,218.5C 732.651,208.754 730.484,199.087 728,189.5C 724.48,194.685 719.98,198.852 714.5,202C 710.131,202.425 705.797,202.092 701.5,201C 699.23,198.525 696.563,196.525 693.5,195C 679.858,193.029 670.691,185.529 666,172.5C 660.721,154.269 664.554,138.436 677.5,125C 680.631,122.101 684.298,120.268 688.5,119.5 Z"/></g>
<g><path style="opacity:1" fill="#66f4f6" d="M 254.5,125.5 C 258.911,125.203 262.911,126.369 266.5,129C 282.11,140.431 291.777,155.598 295.5,174.5C 295.9,180.96 293.4,182.627 288,179.5C 284.15,166.634 278.317,154.801 270.5,144C 264.71,142.962 259.21,143.795 254,146.5C 253.228,146.355 252.561,146.022 252,145.5C 249.452,140.764 248.452,135.764 249,130.5C 250.73,128.598 252.563,126.931 254.5,125.5 Z"/></g>
<g><path style="opacity:1" fill="#65f4f7" d="M 793.5,125.5 C 797.911,125.203 801.911,126.369 805.5,129C 819.285,139.068 828.785,152.235 834,168.5C 834.667,172.167 834.667,175.833 834,179.5C 831.88,182.08 829.713,182.08 827.5,179.5C 824.154,170.295 820.32,161.295 816,152.5C 813.955,149.577 811.788,146.743 809.5,144C 803.85,142.931 798.517,143.764 793.5,146.5C 792.558,146.392 791.725,146.059 791,145.5C 789.545,141.589 788.378,137.589 787.5,133.5C 787.667,132.5 787.833,131.5 788,130.5C 789.812,128.7 791.645,127.033 793.5,125.5 Z"/></g>
<g><path style="opacity:0.757" fill="#73bc8f" d="M 883.5,129.5 C 884.492,129.328 885.158,129.662 885.5,130.5C 884.377,131.757 883.711,131.424 883.5,129.5 Z"/></g>
<g><path style="opacity:1" fill="#fc201d" d="M 124.5,133.5 C 141.688,131.251 156.855,135.584 170,146.5C 171.615,151.043 170.115,153.876 165.5,155C 152.394,157.978 140.227,155.812 129,148.5C 126.43,143.815 124.93,138.815 124.5,133.5 Z"/></g>
<g><path style="opacity:1" fill="#68f2f4" d="M 695.5,147.5 C 709.864,146.042 717.03,152.375 717,166.5C 715.155,170.795 712.488,171.462 709,168.5C 707.363,165.283 706.03,161.95 705,158.5C 703.316,156.299 701.316,155.633 699,156.5C 698.503,159.146 698.336,161.813 698.5,164.5C 692.81,164.977 689.143,162.477 687.5,157C 687.625,155.373 688.125,153.873 689,152.5C 691.326,150.934 693.492,149.268 695.5,147.5 Z"/></g>
<g><path style="opacity:1" fill="#fa18f6" d="M 390.5,201.5 C 389.89,202.391 389.557,203.391 389.5,204.5C 388.833,204.833 388.167,205.167 387.5,205.5C 376.764,213.531 365.431,220.531 353.5,226.5C 352.034,211.938 350.034,197.438 347.5,183C 348.444,174.341 350.111,165.841 352.5,157.5C 356.392,155.583 359.392,156.417 361.5,160C 358.968,166.63 357.301,173.463 356.5,180.5C 359.068,192.033 361.068,203.7 362.5,215.5C 372.101,211.366 381.434,206.699 390.5,201.5 Z"/></g>
<g><path style="opacity:1" fill="#f51af3" d="M 559.5,198.5 C 558.905,201.317 557.572,203.65 555.5,205.5C 538.901,197.004 525.234,185.004 514.5,169.5C 514.238,168.022 514.571,166.689 515.5,165.5C 515.833,165.667 516.167,165.833 516.5,166C 528.491,180.187 542.824,191.02 559.5,198.5 Z"/></g>
<g><path style="opacity:0.997" fill="#fa14f8" d="M 243.5,261.5 C 241.6,267.629 238.933,273.296 235.5,278.5C 232.714,280.113 230.047,281.946 227.5,284C 218.631,286.905 209.631,289.072 200.5,290.5C 198.83,282.817 196.996,275.151 195,267.5C 194.333,262.5 194.333,257.5 195,252.5C 200.119,236.026 204.285,219.359 207.5,202.5C 206.983,197.971 206.316,193.471 205.5,189C 206.285,183.026 207.619,177.193 209.5,171.5C 206.794,171.425 204.127,171.092 201.5,170.5C 201.977,168.536 203.144,167.202 205,166.5C 210.895,168.87 216.728,169.87 222.5,169.5C 221.058,172.05 219.892,174.716 219,177.5C 219,186.167 219,194.833 219,203.5C 214.934,214.363 211.268,225.363 208,236.5C 207.333,241.167 207.333,245.833 208,250.5C 209.81,256.444 211.31,262.444 212.5,268.5C 223.264,267.765 233.598,265.432 243.5,261.5 Z"/></g>
<g><path style="opacity:1" fill="#f720f4" d="M 176.5,183.5 C 176.167,183.5 175.833,183.5 175.5,183.5C 167.872,185.868 160.039,186.868 152,186.5C 131.817,188.077 112.983,183.91 95.5,174C 91.2778,172.554 86.9445,171.72 82.5,171.5C 82.6107,170.883 82.944,170.383 83.5,170C 90.8688,169.383 98.2021,169.717 105.5,171C 115.906,175.135 126.572,178.468 137.5,181C 150.642,181.994 163.642,182.828 176.5,183.5 Z"/></g>
<g><path style="opacity:0.976" fill="#5dda94" d="M 201.5,170.5 C 204.127,171.092 206.794,171.425 209.5,171.5C 207.619,177.193 206.285,183.026 205.5,189C 206.316,193.471 206.983,197.971 207.5,202.5C 204.285,219.359 200.119,236.026 195,252.5C 194.333,257.5 194.333,262.5 195,267.5C 196.996,275.151 198.83,282.817 200.5,290.5C 209.631,289.072 218.631,286.905 227.5,284C 230.047,281.946 232.714,280.113 235.5,278.5C 233.47,286.223 230.137,293.223 225.5,299.5C 213.5,299.5 201.5,299.5 189.5,299.5C 188.402,293.511 187.236,287.511 186,281.5C 185.333,277.5 185.333,273.5 186,269.5C 188.702,256.359 191.869,243.359 195.5,230.5C 196.649,230.209 197.316,229.376 197.5,228C 198.216,225.208 198.549,222.374 198.5,219.5C 199.075,208.675 199.075,197.675 198.5,186.5C 199.167,183.167 199.833,179.833 200.5,176.5C 199.167,176.5 197.833,176.5 196.5,176.5C 197.443,173.891 199.11,171.891 201.5,170.5 Z"/></g>
<g><path style="opacity:0.976" fill="#5bd28d" d="M 514.5,169.5 C 525.234,185.004 538.901,197.004 555.5,205.5C 554.102,209.288 551.935,212.621 549,215.5C 534.972,205.305 522.805,193.305 512.5,179.5C 512.159,175.84 512.825,172.507 514.5,169.5 Z"/></g>
<g><path style="opacity:0.941" fill="#5dd28e" d="M 82.5,171.5 C 86.9445,171.72 91.2778,172.554 95.5,174C 112.983,183.91 131.817,188.077 152,186.5C 160.039,186.868 167.872,185.868 175.5,183.5C 172.065,188.064 167.399,190.898 161.5,192C 145.807,193.972 130.14,193.638 114.5,191C 109.953,190.057 105.62,188.557 101.5,186.5C 100.216,184.386 98.216,183.386 95.5,183.5C 91.7707,182.592 88.4373,180.926 85.5,178.5C 84.8333,178.833 84.1667,179.167 83.5,179.5C 77.4873,177.009 71.154,176.009 64.5,176.5C 69.6006,172.102 75.6006,170.435 82.5,171.5 Z"/></g>
<g><path style="opacity:1" fill="#65f4f6" d="M 240.5,174.5 C 242.467,174.261 244.301,174.594 246,175.5C 248.363,178.893 250.196,182.56 251.5,186.5C 246.441,204.847 241.274,223.18 236,241.5C 234.058,246.283 230.558,248.283 225.5,247.5C 225.392,243.753 225.892,240.086 227,236.5C 230.593,226.969 233.926,217.302 237,207.5C 237.768,199.803 237.602,192.137 236.5,184.5C 237.292,180.92 238.626,177.587 240.5,174.5 Z"/></g>
<g><path style="opacity:1" fill="#69f1f4" d="M 779.5,174.5 C 782.044,174.104 784.211,174.771 786,176.5C 787.777,179.72 789.277,183.053 790.5,186.5C 785.494,204.857 780.327,223.19 775,241.5C 773.509,246.326 770.342,248.16 765.5,247C 764.919,246.107 764.585,245.107 764.5,244C 767.28,233.271 770.78,222.771 775,212.5C 776.737,203.192 776.904,193.859 775.5,184.5C 776.308,180.895 777.641,177.561 779.5,174.5 Z"/></g>
<g><path style="opacity:1" fill="#f524ee" d="M 697.5,121.5 C 700.947,123.397 704.28,125.563 707.5,128C 701.751,128.148 696.085,128.814 690.5,130C 680.706,133.463 673.872,139.963 670,149.5C 668.669,170.505 678.503,182.005 699.5,184C 707.589,189.59 715.922,189.923 724.5,185C 726.546,182.097 729.213,180.264 732.5,179.5C 732.5,180.833 732.5,182.167 732.5,183.5C 731.85,183.196 731.183,182.863 730.5,182.5C 726.935,187.234 722.601,191.067 717.5,194C 712.625,194.807 707.958,194.141 703.5,192C 700.065,188.181 695.731,186.515 690.5,187C 676.097,181.056 668.431,170.223 667.5,154.5C 669.147,135.855 679.147,124.855 697.5,121.5 Z"/></g>
<g><path style="opacity:0.903" fill="#f21de5" d="M 506.5,184.5 C 506.306,186.912 504.973,187.912 502.5,187.5C 495.051,187.755 487.718,188.755 480.5,190.5C 481.476,189.185 482.476,187.852 483.5,186.5C 489.655,185.436 495.821,184.436 502,183.5C 503.707,183.508 505.207,183.842 506.5,184.5 Z"/></g>
<g><path style="opacity:0.006" fill="#202513" d="M 95.5,183.5 C 98.216,183.386 100.216,184.386 101.5,186.5C 98.911,186.539 96.911,185.539 95.5,183.5 Z"/></g>
<g><path style="opacity:0.027" fill="#4c4a58" d="M 989.5,174.5 C 989.283,178.705 988.617,182.705 987.5,186.5C 987.167,186.5 986.833,186.5 986.5,186.5C 987.18,182.881 987.68,179.214 988,175.5C 988.383,174.944 988.883,174.611 989.5,174.5 Z"/></g>
<g><path style="opacity:0.967" fill="#61d08e" d="M 352.5,157.5 C 350.111,165.841 348.444,174.341 347.5,183C 350.034,197.438 352.034,211.938 353.5,226.5C 365.431,220.531 376.764,213.531 387.5,205.5C 385.319,210.028 382.319,214.028 378.5,217.5C 368.925,224.967 358.925,231.967 348.5,238.5C 346.988,237.009 345.988,235.176 345.5,233C 345.833,232.667 346.167,232.333 346.5,232C 345.012,221.895 343.678,211.729 342.5,201.5C 345.472,189.053 346.972,176.386 347,163.5C 348.331,161.004 350.164,159.004 352.5,157.5 Z"/></g>
<g><path style="opacity:0.998" fill="#fb10f7" d="M 331.5,212.5 C 330.2,215.432 328.2,217.766 325.5,219.5C 307.648,228.383 293.648,224.217 283.5,207C 277.135,207.044 271.468,205.211 266.5,201.5C 267.002,196.32 268.669,191.653 271.5,187.5C 276.84,195.838 284.507,200.005 294.5,200C 303.742,212.804 316.075,216.97 331.5,212.5 Z"/></g>
<g><path style="opacity:0.953" fill="#5ec284" d="M 502.5,187.5 C 502.822,189.722 502.155,191.556 500.5,193C 491.806,194.947 483.14,196.78 474.5,198.5C 476.091,195.569 478.091,192.902 480.5,190.5C 487.718,188.755 495.051,187.755 502.5,187.5 Z"/></g>
<g><path style="opacity:1" fill="#f425ed" d="M 732.5,183.5 C 735.082,189.151 736.749,195.151 737.5,201.5C 744.239,198.289 750.572,194.289 756.5,189.5C 758.111,190.32 758.778,191.654 758.5,193.5C 752.706,198.123 747.039,202.956 741.5,208C 740.5,208.667 739.5,208.667 738.5,208C 736.184,199.923 734.184,191.757 732.5,183.5 Z"/></g>
<g><path style="opacity:1" fill="#f918f7" d="M 472.5,199.5 C 472.573,201.027 471.906,202.027 470.5,202.5C 458.915,214.19 444.915,218.357 428.5,215C 415.906,212.539 405.24,206.706 396.5,197.5C 398.419,194.681 400.585,192.014 403,189.5C 405.5,192 408,194.5 410.5,197C 413.661,198.413 416.661,200.08 419.5,202C 437.653,208.683 455.319,207.85 472.5,199.5 Z"/></g>
<g><path style="opacity:0.973" fill="#5cd58f" d="M 986.5,186.5 C 986.833,186.5 987.167,186.5 987.5,186.5C 986.691,199.273 982.357,210.606 974.5,220.5C 972.952,220.821 972.285,221.821 972.5,223.5C 969.085,226.873 965.085,229.206 960.5,230.5C 959.167,230.5 958.5,231.167 958.5,232.5C 950.75,235.086 942.75,236.086 934.5,235.5C 925.833,235.5 917.167,235.5 908.5,235.5C 894.235,232.533 883.235,224.866 875.5,212.5C 875.586,211.504 875.252,210.671 874.5,210C 872.527,209.505 870.527,209.338 868.5,209.5C 865.061,209.212 861.728,208.546 858.5,207.5C 855.665,205.587 852.332,204.587 848.5,204.5C 848.5,205.5 848.5,206.5 848.5,207.5C 848.167,208.5 847.5,209.167 846.5,209.5C 844.205,210.136 842.539,211.469 841.5,213.5C 834.122,217.613 826.789,217.279 819.5,212.5C 815.775,209.112 812.442,205.446 809.5,201.5C 810.228,198.921 810.728,196.254 811,193.5C 811.414,193.043 811.914,192.709 812.5,192.5C 818.254,204.209 827.587,208.709 840.5,206C 845.051,203.991 848.884,201.158 852,197.5C 859.399,199.483 866.899,200.983 874.5,202C 879.479,207.311 884.813,212.311 890.5,217C 899.883,222.72 910.049,225.553 921,225.5C 928.846,225.204 936.68,224.704 944.5,224C 967.746,221.923 981.746,209.423 986.5,186.5 Z"/></g>
<g><path style="opacity:0.982" fill="#5cd08c" d="M 396.5,197.5 C 405.24,206.706 415.906,212.539 428.5,215C 444.915,218.357 458.915,214.19 470.5,202.5C 461.161,220.839 446.161,228.672 425.5,226C 410.811,223.162 398.811,215.996 389.5,204.5C 389.557,203.391 389.89,202.391 390.5,201.5C 392.228,199.774 394.228,198.441 396.5,197.5 Z"/></g>
<g><path style="opacity:0.919" fill="#59b178" d="M 25.5,199.5 C 18.5234,206.665 9.85678,211.332 -0.5,213.5C -0.5,211.167 -0.5,208.833 -0.5,206.5C 8.16057,204.169 16.8272,201.836 25.5,199.5 Z"/></g>
<g><path style="opacity:0.981" fill="#5cd38d" d="M 266.5,201.5 C 271.468,205.211 277.135,207.044 283.5,207C 293.648,224.217 307.648,228.383 325.5,219.5C 323.077,227.566 317.744,232.733 309.5,235C 299.801,237.161 291.468,234.828 284.5,228C 281.667,224.672 279.334,221.005 277.5,217C 272.789,217.043 268.456,215.876 264.5,213.5C 264.334,209.326 265,205.326 266.5,201.5 Z"/></g>
<g><path style="opacity:0.331" fill="#405f34" d="M 858.5,207.5 C 855.018,207.172 851.685,207.172 848.5,207.5C 851.685,207.172 855.018,207.172 858.5,207.5 Z"/></g>
<g><path style="opacity:0.008" fill="#2c321b" d="M 846.5,209.5 C 845.421,211.543 843.754,212.876 841.5,213.5C 842.539,211.469 844.205,210.136 846.5,209.5 Z"/></g>
<g><path style="opacity:0.006" fill="#1e210d" d="M 868.5,209.5 C 870.527,209.338 872.527,209.505 874.5,210C 875.252,210.671 875.586,211.504 875.5,212.5C 872.904,211.945 870.571,210.945 868.5,209.5 Z"/></g>
<g><path style="opacity:0.043" fill="#47773b" d="M 198.5,186.5 C 199.075,197.675 199.075,208.675 198.5,219.5C 197.64,208.333 197.64,197.333 198.5,186.5 Z"/></g>
<g><path style="opacity:0.161" fill="#641d5e" d="M 805.5,220.5 C 805.102,225.412 804.102,230.079 802.5,234.5C 802.581,229.523 803.581,224.857 805.5,220.5 Z"/></g>
<g><path style="opacity:0.006" fill="#181401" d="M 974.5,220.5 C 974.068,221.71 973.401,222.71 972.5,223.5C 972.285,221.821 972.952,220.821 974.5,220.5 Z"/></g>
<g><path style="opacity:0.035" fill="#364420" d="M 198.5,219.5 C 198.549,222.374 198.216,225.208 197.5,228C 197.316,229.376 196.649,230.209 195.5,230.5C 196.368,226.686 197.368,223.019 198.5,219.5 Z"/></g>
<g><path style="opacity:0.004" fill="#231a09" d="M 960.5,230.5 C 960.5,231.833 959.833,232.5 958.5,232.5C 958.5,231.167 959.167,230.5 960.5,230.5 Z"/></g>
<g><path style="opacity:0.147" fill="#241e03" d="M 908.5,235.5 C 917.167,235.5 925.833,235.5 934.5,235.5C 930.966,237.048 927.133,237.714 923,237.5C 919.05,237.035 915.217,237.035 911.5,237.5C 910.261,237.058 909.261,236.391 908.5,235.5 Z"/></g>
<g><path style="opacity:0.982" fill="#5cd48f" d="M 802.5,235.5 C 799.026,251.395 795.526,267.062 792,282.5C 789.006,288.311 785.839,293.978 782.5,299.5C 770.5,299.5 758.5,299.5 746.5,299.5C 744.695,291.27 743.362,282.937 742.5,274.5C 743.038,268.729 744.038,263.062 745.5,257.5C 747.573,268.429 749.906,279.429 752.5,290.5C 760.958,289.374 769.292,287.541 777.5,285C 785.309,281.574 790.476,275.741 793,267.5C 795.986,257.248 798.653,246.914 801,236.5C 801.383,235.944 801.883,235.611 802.5,235.5 Z"/></g>
</svg>
